<?xml version="1.0" encoding="UTF-8" standalone="no"?>
<svg
   xmlns:dc="http://purl.org/dc/elements/1.1/"
   xmlns:cc="http://creativecommons.org/ns#"
   xmlns:rdf="http://www.w3.org/1999/02/22-rdf-syntax-ns#"
   xmlns:svg="http://www.w3.org/2000/svg"
   xmlns="http://www.w3.org/2000/svg"
   xmlns:sodipodi="http://sodipodi.sourceforge.net/DTD/sodipodi-0.dtd"
   xmlns:inkscape="http://www.inkscape.org/namespaces/inkscape"
   width="250"
   height="250"
   viewBox="0 0 66.145832 66.145835"
   version="1.1"
   id="svg8"
   inkscape:export-filename="/home/danilo/bitmap.png"
   inkscape:export-xdpi="96"
   inkscape:export-ydpi="96"
   inkscape:version="1.0.2 (e86c870879, 2021-01-15)"
   sodipodi:docname="favicon.svg">
  <defs
     id="defs2">
    <rect
       x="-94.605793"
       y="14.654511"
       width="61.889598"
       height="18.170308"
       id="rect978" />
    <rect
       x="-64.528364"
       y="3.7694399"
       width="23.318222"
       height="19.509631"
       id="rect31" />
  </defs>
  <sodipodi:namedview
     id="base"
     pagecolor="#ffffff"
     bordercolor="#666666"
     borderopacity="1.0"
     inkscape:pageopacity="0.0"
     inkscape:pageshadow="2"
     inkscape:zoom="1.608"
     inkscape:cx="182.21004"
     inkscape:cy="190.59066"
     inkscape:document-units="mm"
     inkscape:current-layer="layer1"
     inkscape:document-rotation="0"
     showgrid="false"
     units="px"
     inkscape:window-width="1920"
     inkscape:window-height="995"
     inkscape:window-x="0"
     inkscape:window-y="0"
     inkscape:window-maximized="1" />
  <metadata
     id="metadata5">
    <rdf:RDF>
      <cc:Work
         rdf:about="">
        <dc:format>image/svg+xml</dc:format>
        <dc:type
           rdf:resource="http://purl.org/dc/dcmitype/StillImage" />
        <dc:title></dc:title>
      </cc:Work>
    </rdf:RDF>
  </metadata>
  <g
     inkscape:label="Layer 1"
     inkscape:groupmode="layer"
     id="layer1"
     style="display:inline">
    <rect
       style="fill:#aaeeff;stroke:#2ad4ff;stroke-width:3.88453;stroke-linecap:round;stroke-miterlimit:0.8;paint-order:fill markers stroke"
       id="rect17"
       width="61.994461"
       height="61.754993"
       x="2.2083464"
       y="1.7266247"
       ry="15.446488" />
    <ellipse
       style="fill:#d5f6ff;stroke:#2ad4ff;stroke-width:2.71694;stroke-linecap:round;stroke-linejoin:miter;stroke-miterlimit:0.8;stroke-dasharray:none;stroke-dashoffset:0;paint-order:fill markers stroke"
       id="path95"
       cy="32.847633"
       cx="33.205578"
       rx="31.582155"
       ry="31.460161" />
    <text
       xml:space="preserve"
       id="text29"
       style="font-size:10.5833px;line-height:1.25;font-family:'Noto Serif CJK SC';-inkscape-font-specification:'Noto Serif CJK SC';white-space:pre;shape-inside:url(#rect31);" />
    <rect
       style="fill:#333333;stroke:#333333;stroke-width:0.939926;stroke-linecap:round;stroke-linejoin:round;stroke-miterlimit:0.8;stroke-dasharray:none;paint-order:stroke fill markers"
       id="rect936"
       width="40.601154"
       height="2.934201"
       x="12.905"
       y="33.687904"
       rx="0"
       ry="0.84839249" />
    <a
       id="a943"
       transform="matrix(1.0000948,0,0,0.99539275,0.61306126,-0.32550154)">
      <rect
         style="fill:none;stroke:#333333;stroke-width:1.47044;stroke-linecap:round;stroke-linejoin:round;stroke-miterlimit:0.8;stroke-dasharray:none;paint-order:stroke fill markers"
         id="rect109"
         width="40.069145"
         height="23.420364"
         x="12.554854"
         y="13.040982"
         ry="2.2004981"
         rx="20.035" />
    </a>
    <rect
       style="fill:#333333;stroke:#333333;stroke-width:0.840481;stroke-linecap:round;stroke-linejoin:round;stroke-miterlimit:0.8;stroke-dasharray:none;paint-order:markers fill stroke"
       id="rect948"
       width="12.388115"
       height="1.8771313"
       x="27.01152"
       y="42.142666"
       ry="0" />
    <rect
       style="fill:#333333;stroke:#333333;stroke-width:1.2559;stroke-linecap:round;stroke-linejoin:round;stroke-miterlimit:0.8;stroke-dasharray:none;paint-order:markers fill stroke"
       id="rect966"
       width="2.9899282"
       height="4.0181818"
       x="31.710611"
       y="37.339977" />
  </g>
  <text
     xml:space="preserve"
     id="text976"
     style="line-height:1.25;font-family:'Noto Serif CJK SC';font-size:10.58333333px;-inkscape-font-specification:'Noto Serif CJK SC';white-space:pre;shape-inside:url(#rect978);" />
  <text
     xml:space="preserve"
     style="font-size:17.0305px;line-height:1.25;font-family:'Noto Serif CJK SC';-inkscape-font-specification:'Noto Serif CJK SC';fill:#333333;stroke-width:0.42576"
     x="14.294912"
     y="51.709427"
     id="text984"
     transform="scale(0.92841212,1.0771079)"><tspan
       sodipodi:role="line"
       id="tspan982"
       x="14.294912"
       y="51.709427"
       style="font-style:normal;font-variant:normal;font-weight:normal;font-stretch:normal;font-family:Gurajada;-inkscape-font-specification:Gurajada;fill:#333333;stroke-width:0.42576">Deskae</tspan></text>
  <path
     style="fill:#333333;stroke:#333333;stroke-width:0.0298569"
     d="m 33.127291,32.728865 c -0.04415,-0.0227 -0.06824,-0.08859 -0.08466,-0.231944 -0.0126,-0.110126 -0.03398,-0.265621 -0.04741,-0.345541 l -0.02445,-0.145312 0.165904,-0.01255 c 0.0912,-0.0069 0.42134,-0.02402 0.733537,-0.03806 0.312207,-0.01405 0.724568,-0.04177 0.916373,-0.06162 0.475964,-0.04923 0.584026,-0.04065 0.622528,0.04948 0.03891,0.09107 0.127363,0.643224 0.105195,0.65666 -0.0294,0.01781 -1.513689,0.129847 -1.927917,0.145532 -0.30571,0.01158 -0.411577,0.0077 -0.459077,-0.01667 z m -1.811475,-0.08374 c -0.215235,-0.02336 -0.950303,-0.13173 -1.267717,-0.186889 -0.274302,-0.04767 -0.796935,-0.16223 -0.842392,-0.184659 -0.02305,-0.01144 0.369228,-0.634713 0.41896,-0.665671 0.04769,-0.0297 0.114566,-0.02201 0.522886,0.06018 0.257499,0.05182 0.74065,0.133306 1.073661,0.181077 0.333013,0.04777 0.612922,0.09136 0.622024,0.09687 0.0094,0.0056 -0.01269,0.149763 -0.04835,0.320541 -0.08224,0.393356 -0.113661,0.418206 -0.479071,0.378539 z m 5.533019,-0.401443 c -0.118701,-0.105579 -0.315968,-0.451921 -0.303367,-0.532625 0.0096,-0.06164 0.03995,-0.08242 0.181836,-0.124729 0.09366,-0.02792 0.54163,-0.164755 0.995499,-0.304066 0.709231,-0.217692 0.832674,-0.248628 0.878346,-0.220124 0.07561,0.04717 0.548079,0.540987 0.548079,0.572803 0,0.0894 -1.860964,0.67352 -2.145794,0.67352 -0.04629,0 -0.113343,-0.02809 -0.154599,-0.06478 z m -9.411871,-0.507973 c -0.791576,-0.311612 -1.494788,-0.648436 -1.494788,-0.715973 0,-0.04065 0.314084,-0.327078 0.52271,-0.476697 l 0.145984,-0.104686 0.526572,0.237288 c 0.289618,0.130516 0.726668,0.318011 0.971221,0.416671 0.244562,0.09867 0.444647,0.185444 0.444647,0.192854 0,0.02639 -0.598015,0.649688 -0.619129,0.645308 -0.0028,-6e-4 -0.22665,-0.08824 -0.497217,-0.194758 z m 4.995208,-0.550236 c -0.641392,-0.03354 -1.655735,-0.182762 -2.307161,-0.339393 -3.009027,-0.72349 -5.108299,-2.4022 -5.50552,-4.402559 -0.05843,-0.294349 -0.04872,-0.991177 0.01829,-1.312683 0.347133,-1.664335 1.919497,-3.126999 4.25606,-3.959117 2.368672,-0.843549 4.986499,-0.963706 7.507437,-0.344588 0.701335,0.172241 1.580045,0.491186 2.199175,0.798236 0.380177,0.188543 1.001025,0.576565 1.338461,0.83653 1.036615,0.79861 1.674628,1.742435 1.861084,2.75314 0.06105,0.330653 0.02781,1.167007 -0.05815,1.463429 -0.225259,0.777199 -0.681688,1.494932 -1.345098,2.115174 -0.412725,0.385865 -0.715252,0.612095 -1.236261,0.924484 -1.320595,0.791801 -3.192787,1.332176 -5.052341,1.458266 -0.336728,0.02283 -1.312074,0.02811 -1.676028,0.0091 z m 0.170291,-1.656672 V 28.704323 H 31.29389 29.985317 l 0.02632,0.07656 c 0.05283,0.153931 0.552755,1.069642 0.652658,1.19549 0.102012,0.128508 0.105325,0.130084 0.409365,0.19357 0.365849,0.0764 1.142706,0.179633 1.368011,0.181793 l 0.160827,0.0015 z m 2.205699,0.732506 c 0.24474,-0.03848 0.535739,-0.09582 0.646665,-0.127434 l 0.201691,-0.05747 0.346182,-0.649486 c 0.190397,-0.35722 0.346173,-0.665935 0.346173,-0.686037 0,-0.0323 -0.147376,-0.03655 -1.267718,-0.03655 h -1.267726 v 0.827932 0.827934 l 0.274879,-0.01447 c 0.151184,-0.008 0.475114,-0.04595 0.719854,-0.08442 z m 2.884127,-0.846553 c 0.296479,-0.146938 1.154197,-0.660254 1.154197,-0.690753 0,-0.01088 -0.271322,-0.01967 -0.602936,-0.01967 -0.541608,0 -0.604903,0.0042 -0.622301,0.04122 -0.119701,0.254637 -0.364151,0.81281 -0.364151,0.831474 0,0.03664 0.13666,-0.01431 0.435191,-0.162267 z m -8.609763,0.131716 c -3.18e-4,-0.01619 -0.08391,-0.209652 -0.18574,-0.429904 l -0.18516,-0.400461 -0.571106,-0.0066 c -0.31411,-0.0036 -0.571114,0.0018 -0.571114,0.01213 0,0.03013 0.943087,0.602436 1.209071,0.733721 0.253673,0.125216 0.305029,0.140589 0.304049,0.09103 z m -0.673865,-1.607981 c 0.01064,-0.0066 -0.0037,-0.115273 -0.03229,-0.241453 -0.0958,-0.425519 -0.162636,-0.840111 -0.187932,-1.165793 l -0.0252,-0.323901 h -1.13199 c -1.059894,0 -1.130833,0.0027 -1.113574,0.04122 0.01018,0.02267 0.02986,0.115425 0.04387,0.206119 0.04965,0.322261 0.332703,0.926888 0.614778,1.313273 l 0.133273,0.182561 h 0.83989 c 0.461935,0 0.84858,-0.0055 0.859212,-0.01199 z m 4.184813,-0.865447 0.0099,-0.8657 H 31.007667 29.41195 l 0.02418,0.418127 c 0.02044,0.352373 0.10021,0.841788 0.197706,1.212201 l 0.02296,0.08738 0.290206,0.0081 c 0.159621,0.0045 0.818122,0.0076 1.463331,0.0069 l 1.173126,-0.0013 z m 4.167928,0.553576 c 0.111916,-0.445409 0.152985,-0.740428 0.154133,-1.107153 l 9.34e-4,-0.312123 H 35.36492 33.813382 v 0.855885 c 0,0.470737 0.01139,0.862952 0.0252,0.871589 0.01391,0.0087 0.658863,0.0157 1.433304,0.0157 h 1.408064 z m 2.994158,0.247344 c 0.220789,-0.224109 0.556713,-0.88235 0.659807,-1.2929 0.03369,-0.134282 0.06869,-0.273311 0.07785,-0.30894 l 0.01652,-0.06478 h -1.166292 -1.166293 l -0.02511,0.344153 c -0.0293,0.40176 -0.117077,0.947989 -0.191535,1.192233 -0.02875,0.09429 -0.04453,0.179407 -0.035,0.189125 0.0096,0.0098 0.408207,0.01767 0.885991,0.01767 h 0.868703 z M 28.191775,25.329866 c 0.01185,-0.05506 0.0475,-0.23792 0.07934,-0.406348 0.06449,-0.341449 0.226211,-1.030464 0.263585,-1.12316 0.03416,-0.08483 -0.01549,-0.0893 -0.992931,-0.08968 l -0.841226,-3.34e-4 -0.07551,0.09215 c -0.291549,0.355748 -0.591957,1.003533 -0.675535,1.456693 l -0.03145,0.170785 h 1.12611 1.126119 z m 4.410688,-0.760804 V 23.70814 l -1.361021,0.007 c -1.175544,0.006 -1.369113,0.01199 -1.42032,0.04393 -0.08942,0.05573 -0.397408,1.272908 -0.397427,1.570792 v 0.100111 h 1.589389 1.589379 z m 4.314052,0.778686 c 0,-0.262502 -0.289076,-1.566064 -0.356608,-1.608103 -0.01195,-0.0074 -0.634764,-0.01849 -1.384085,-0.02461 l -1.362393,-0.01116 v 0.863021 0.863021 h 1.551538 1.551548 z m 3.544814,-0.100335 c -0.04275,-0.330885 -0.327917,-0.960739 -0.602544,-1.33094 l -0.152901,-0.206119 h -0.954615 -0.954606 l 0.03118,0.103961 c 0.103861,0.346071 0.334945,1.433613 0.337045,1.58622 3.26e-4,0.02291 0.257807,0.02944 1.160217,0.02944 H 40.48491 Z M 28.910032,22.809319 c 0.03089,-0.06802 0.116469,-0.255841 0.190266,-0.417383 0.07384,-0.161541 0.134186,-0.31287 0.134186,-0.336284 0,-0.03906 -0.0084,-0.03974 -0.104076,-0.0083 -0.235787,0.07776 -1.327539,0.676992 -1.486311,0.815792 l -0.07981,0.06979 h 0.644845 0.644845 z m 3.692431,-0.689027 v -0.812698 h -0.207525 c -0.206628,0 -0.927546,0.08532 -1.295057,0.153245 l -0.193001,0.03568 -0.177609,0.30011 c -0.205965,0.348005 -0.526461,0.9485 -0.565635,1.059806 l -0.02698,0.07656 h 1.232892 1.232883 z m 3.583511,0.794076 c 0.03314,-0.01311 -0.0084,-0.118633 -0.156083,-0.39421 -0.286034,-0.534669 -0.541713,-0.954854 -0.60932,-1.001355 -0.110927,-0.07629 -1.006681,-0.211209 -1.402343,-0.211209 h -0.204799 v 0.812698 0.812699 l 1.163651,-3.34e-4 c 0.64002,-2.01e-4 1.184019,-0.0084 1.208894,-0.01826 z m 2.266623,-0.244445 c -0.78775,-0.465612 -1.297316,-0.717892 -1.36496,-0.67578 -0.01158,0.0073 0.0757,0.221409 0.193926,0.475984 l 0.215001,0.462864 h 0.70055 0.700552 z m 1.432091,8.212273 -0.407526,-0.272001 0.661348,-0.417026 c 0.363739,-0.229365 0.733592,-0.469494 0.821892,-0.53362 l 0.160547,-0.116597 0.124582,0.04177 c 0.06851,0.02297 0.27417,0.135314 0.456997,0.249647 0.389968,0.243877 0.412184,0.175076 -0.191461,0.592952 -0.366409,0.25365 -1.146841,0.726875 -1.198747,0.726875 -0.01101,0 -0.203484,-0.122399 -0.427632,-0.272 z M 24.744857,30.292516 C 24.427591,30.083109 23.686951,29.437187 23.531641,29.23445 l -0.06749,-0.08807 0.120326,-0.06202 c 0.17886,-0.09219 0.73811,-0.30472 0.824954,-0.313502 0.05787,-0.0059 0.119337,0.03371 0.26254,0.169031 0.102825,0.09717 0.36711,0.335681 0.587301,0.530021 0.220191,0.194341 0.43046,0.382695 0.467264,0.418566 l 0.06692,0.06521 -0.14324,0.08211 c -0.166167,0.09525 -0.705601,0.341025 -0.7485,0.341025 -0.01605,0 -0.08662,-0.03794 -0.156879,-0.08432 z m 17.526378,-1.16762 c -0.249762,-0.0788 -0.460479,-0.146907 -0.468254,-0.151349 -0.01895,-0.01088 0.140114,-0.253689 0.346108,-0.528484 0.09231,-0.123152 0.248706,-0.356366 0.347536,-0.518242 0.09883,-0.161874 0.187111,-0.301909 0.196184,-0.31119 0.0181,-0.01854 1.069414,0.205323 1.124113,0.239372 0.04349,0.02707 -0.205818,0.440651 -0.540193,0.896137 -0.319113,0.4347 -0.385132,0.505458 -0.477615,0.511894 -0.0406,0.0028 -0.278118,-0.05934 -0.527879,-0.138131 z m -19.584309,-1.06986 c -0.08709,-0.162768 -0.19498,-0.382726 -0.239652,-0.488796 l -0.08121,-0.192856 -1.021745,-0.01649 c -1.971684,-0.03181 -2.463208,-0.07544 -3.23509,-0.287213 -1.755143,-0.481518 -2.944837,-1.379443 -3.337054,-2.518642 -0.110002,-0.319526 -0.119197,-0.936681 -0.01857,-1.249961 0.219677,-0.684199 0.686904,-1.228938 1.479899,-1.725401 1.023921,-0.641034 2.15088,-0.992966 3.439964,-1.074254 l 0.448288,-0.02827 0.171728,-0.212916 c 0.236377,-0.293072 0.429489,-0.463415 0.764779,-0.674623 0.503387,-0.317089 1.208267,-0.560476 1.864426,-0.643763 0.578526,-0.07343 1.073018,-0.03279 1.671397,0.137364 0.163897,0.04661 0.303348,0.08475 0.309883,0.08475 0.0065,0 0.02249,-0.05035 0.03547,-0.111898 0.06301,-0.298673 0.185019,-0.640388 0.306727,-0.859288 0.643267,-1.156969 2.139399,-1.985561 4.139701,-2.292664 0.330622,-0.05076 1.534962,-0.07281 1.976902,-0.0362 0.414069,0.0343 0.754959,0.103361 1.440361,0.291781 l 0.540919,0.148707 0.527982,-0.315144 c 0.89442,-0.533873 1.400215,-0.765619 2.306572,-1.056845 0.923552,-0.296748 1.696871,-0.468346 2.65242,-0.588568 0.451517,-0.0568 1.995252,-0.05719 2.72122,-6.75e-4 2.572724,0.200283 5.024479,1.19635 6.386742,2.594712 1.121115,1.15084 1.468157,2.341914 1.067753,3.664637 -0.0518,0.171007 -0.09412,0.324884 -0.09412,0.34195 0,0.01708 0.157512,0.104003 0.350038,0.193208 1.190254,0.551461 1.825521,1.063147 2.227698,1.794309 0.183864,0.334269 0.238804,0.560353 0.237823,0.978609 -9.32e-4,0.572861 -0.142241,0.948666 -0.54761,1.4605 -0.565561,0.71411 -1.448911,1.264146 -2.589611,1.612475 -1.026617,0.313491 -1.284294,0.338677 -3.770248,0.368497 l -1.386158,0.01663 -0.173558,-0.09031 c -0.09546,-0.04966 -0.191171,-0.121744 -0.212687,-0.160173 -0.05358,-0.09567 -0.04779,-0.448218 0.01745,-1.063983 0.03024,-0.285032 0.05534,-0.542355 0.0559,-0.571827 l 9.33e-4,-0.05359 0.614939,0.0064 0.614939,0.0064 -0.0056,0.05889 c -0.0028,0.03239 -0.01792,0.28945 -0.03351,0.571245 l -0.02838,0.512354 h 0.95271 c 1.357334,0 1.883263,-0.0446 2.558042,-0.216948 1.329958,-0.339681 2.398336,-1.130692 2.634115,-1.950247 0.06898,-0.239782 0.06059,-0.855621 -0.01484,-1.085153 C 50.247098,22.820649 49.740855,22.2968 49.060428,21.93 48.817397,21.798981 48.682603,21.739681 48.107904,21.510912 47.592159,21.305611 47.550585,21.22918 47.719131,20.796127 c 0.128587,-0.330376 0.172195,-0.511417 0.205975,-0.854998 0.20548,-2.089893 -1.904199,-3.975078 -5.209462,-4.655108 -0.632721,-0.130181 -0.95679,-0.166234 -1.809757,-0.201369 -1.635527,-0.06736 -2.778476,0.06303 -4.075576,0.46496 -1.092238,0.338452 -1.828352,0.680788 -2.486487,1.156357 -0.632357,0.456935 -0.728049,0.476234 -1.355794,0.273435 -0.438767,-0.141749 -0.974189,-0.268156 -1.388864,-0.327898 -0.23913,-0.03445 -0.445853,-0.04317 -0.983906,-0.04146 -0.60678,0.002 -0.721338,0.0088 -1.049021,0.06325 -0.840691,0.139645 -1.442115,0.345071 -2.038927,0.696428 -0.431056,0.253774 -0.689321,0.457939 -0.906684,0.716778 -0.313746,0.373605 -0.408674,0.638702 -0.449511,1.255297 -0.03398,0.513776 -0.07122,0.596286 -0.300846,0.667844 -0.27879,0.08688 -0.310769,0.0841 -0.776316,-0.06729 -0.588812,-0.191482 -0.814025,-0.235113 -1.301543,-0.252159 -0.713059,-0.02494 -1.210957,0.0618 -1.763292,0.30714 -0.434622,0.193058 -0.632841,0.362814 -0.882733,0.755969 -0.174137,0.273985 -0.290654,0.373694 -0.480491,0.411202 -0.06423,0.01269 -0.314886,0.03417 -0.557048,0.04774 -1.581856,0.08863 -2.857647,0.569595 -3.628391,1.36787 -0.343494,0.35576 -0.503405,0.690471 -0.551392,1.154081 -0.04387,0.423731 0.0617,0.834275 0.304729,1.184873 0.555435,0.801362 1.758831,1.41168 3.142235,1.59362 0.326272,0.04292 0.587048,0.05283 1.892121,0.07201 0.832543,0.01227 1.606777,0.03421 1.720542,0.04887 0.322828,0.04157 0.425475,0.12092 0.530651,0.410202 0.04704,0.129373 0.160042,0.398885 0.251123,0.598907 0.0911,0.200021 0.165588,0.387025 0.165588,0.415563 0,0.04516 -0.06777,0.06749 -0.522261,0.172232 -0.287246,0.06619 -0.532762,0.120349 -0.545587,0.120349 -0.01279,0 -0.09461,-0.133166 -0.181752,-0.295941 z m -0.624077,-2.206934 c 0.01055,-0.06802 0.03724,-0.277377 0.05936,-0.46524 0.05059,-0.429526 0.140618,-0.841968 0.200486,-0.918701 0.02754,-0.03528 0.0758,-0.05781 0.120335,-0.05621 0.153154,0.0056 0.917242,0.07918 0.982021,0.09466 0.07617,0.01819 0.07337,0.07198 -0.03528,0.68002 -0.107939,0.604311 -0.137677,0.749799 -0.157289,0.769547 -0.01074,0.01074 -0.282551,0.0196 -0.604111,0.0196 h -0.584649 z m 21.020394,-0.690228 c -0.02016,-0.01514 -0.07131,-0.148277 -0.113642,-0.295845 -0.04228,-0.14757 -0.146676,-0.450403 -0.231915,-0.672962 -0.08522,-0.22256 -0.145956,-0.419295 -0.134923,-0.437188 0.02725,-0.04425 0.901318,-0.193421 1.022464,-0.174494 0.05759,0.0091 0.118235,0.04657 0.156785,0.09713 0.105456,0.138341 0.475954,1.205484 0.475954,1.370899 0,0.04735 -0.01923,0.05495 -0.141906,0.05613 -0.07804,7.4e-4 -0.334104,0.01991 -0.569006,0.04261 -0.324004,0.0313 -0.435958,0.03462 -0.463811,0.01367 z m -19.73328,-1.433396 c -0.526312,-0.125385 -0.586554,-0.146385 -0.586554,-0.204434 0,-0.143542 0.66132,-1.053383 0.9286,-1.277557 l 0.135168,-0.113362 0.177664,0.06434 c 0.09771,0.03539 0.32549,0.121046 0.506179,0.190351 l 0.328513,0.126012 -0.407144,0.50015 c -0.223934,0.275086 -0.448242,0.571706 -0.498468,0.659159 -0.05021,0.08745 -0.108508,0.157997 -0.12951,0.156761 -0.021,-0.0012 -0.225502,-0.04687 -0.454448,-0.101409 z m 18.722605,-0.67461 c -0.0364,-0.04148 -0.317414,-0.313732 -0.624413,-0.605013 -0.306997,-0.291282 -0.558177,-0.54344 -0.558177,-0.560351 0,-0.05726 0.757124,-0.435572 0.871746,-0.435572 0.07813,0 0.641364,0.473734 1.070162,0.900159 0.389941,0.387777 0.393086,0.34745 -0.04069,0.521387 -0.202709,0.08127 -0.432411,0.171851 -0.510463,0.201286 l -0.141896,0.05352 z M 25.047393,21.680024 c -0.215524,-0.132023 -0.391864,-0.24969 -0.391864,-0.261486 0,-0.0408 0.508773,-0.375058 1.111279,-0.730113 l 0.604876,-0.35645 0.390725,0.255296 c 0.214909,0.140411 0.390734,0.273859 0.390734,0.296547 0,0.02269 -0.148981,0.129973 -0.331062,0.238405 -0.182078,0.108438 -0.55324,0.332305 -0.824796,0.497494 -0.271565,0.165191 -0.508212,0.300346 -0.525892,0.300346 -0.01764,0 -0.208475,-0.108021 -0.424,-0.240039 z m 14.564796,-0.53567 c -0.192861,-0.101451 -0.55899,-0.275568 -0.813615,-0.386932 -0.254634,-0.111368 -0.497021,-0.217763 -0.538651,-0.236443 -0.07495,-0.03364 -0.07468,-0.03516 0.02819,-0.159584 0.204603,-0.247362 0.477606,-0.490745 0.550459,-0.490745 0.116106,0 1.236934,0.498905 1.894986,0.843495 l 0.127428,0.06673 -0.389399,0.27514 c -0.21417,0.151326 -0.416262,0.274612 -0.449091,0.273967 -0.03285,-6.68e-4 -0.217493,-0.08418 -0.410344,-0.185626 z M 27.833906,20.183188 c -0.145688,-0.189037 -0.259647,-0.346966 -0.253234,-0.350955 0.02856,-0.01775 0.722102,-0.225703 1.048328,-0.314305 0.610543,-0.165822 0.95652,-0.243389 1.096037,-0.245725 0.132022,-0.0022 0.136268,7.74e-4 0.31116,0.218921 0.2146,0.267678 0.259106,0.391598 0.157559,0.438727 -0.03845,0.01786 -0.265816,0.08229 -0.505169,0.14318 -0.239354,0.06089 -0.694969,0.187912 -1.012487,0.282279 l -0.577303,0.171578 z m 9.082609,-0.08838 c -0.09366,-0.01576 -0.366129,-0.06626 -0.605482,-0.112204 -0.239354,-0.04595 -0.645321,-0.118048 -0.902158,-0.160223 -0.293024,-0.04812 -0.475114,-0.0899 -0.488825,-0.112148 -0.04555,-0.07393 0.171859,-0.588801 0.281935,-0.667579 0.05012,-0.03585 0.09644,-0.03193 0.599668,0.05088 0.635044,0.104477 1.060818,0.189208 1.450087,0.288555 0.272826,0.06964 0.278061,0.07256 0.258899,0.144366 -0.03061,0.114645 -0.326888,0.57418 -0.377983,0.586221 -0.0252,0.006 -0.122482,-0.0021 -0.216141,-0.01786 z M 31.374154,19.65547 c -0.01232,-0.04361 -0.04704,-0.183948 -0.07701,-0.311869 -0.06001,-0.25556 -0.04246,-0.307684 0.116489,-0.345298 0.160705,-0.03804 1.21373,-0.09348 1.775454,-0.09348 h 0.538147 l 0.02389,0.123668 c 0.01316,0.06802 0.02399,0.221352 0.02417,0.34074 3.26e-4,0.192908 -0.0084,0.219869 -0.07514,0.242223 -0.07206,0.02402 -0.915114,0.07253 -1.861384,0.107127 l -0.442118,0.01617 z"
     id="path1054" />
</svg>
